<?xml version="1.0" encoding="UTF-8"?> <svg xmlns="http://www.w3.org/2000/svg" width="125" height="48" viewBox="0 0 125 48" fill="none"><g id="Group 12"><g id="Symbol"><path id="Fill 1" fill-rule="evenodd" clip-rule="evenodd" d="M48.0001 24C48.0001 30.6274 42.6274 36.0001 36 36.0001C29.3727 36.0001 24 30.6274 24 24C24 17.3727 29.3727 12 36 12C42.6274 12 48.0001 17.3727 48.0001 24Z" fill="#D6DB2E"></path><g id="Group 5"><mask id="mask0_2147_58291" style="mask-type:luminance" maskUnits="userSpaceOnUse" x="0" y="12" width="24" height="24"><path id="Clip 4" fill-rule="evenodd" clip-rule="evenodd" d="M0 12H23.9997V36.0001H0V12Z" fill="white"></path></mask><g mask="url(#mask0_2147_58291)"><path id="Fill 3" fill-rule="evenodd" clip-rule="evenodd" d="M24.0001 24C24.0001 30.6274 18.6274 36.0001 12 36.0001C5.37265 36.0001 0 30.6274 0 24C0 17.3727 5.37265 12 12 12C18.6274 12 24.0001 17.3727 24.0001 24Z" fill="#7BB93C"></path></g></g><path id="Fill 6" fill-rule="evenodd" clip-rule="evenodd" d="M24 0C30.6274 0 36.0001 5.37265 36.0001 12C36.0001 18.6274 30.6274 24.0001 24 24.0001C17.3727 24.0001 12 18.6274 12 12C12 5.37265 17.3727 0 24 0Z" fill="#F39222"></path><g id="Group 10"><mask id="mask1_2147_58291" style="mask-type:luminance" maskUnits="userSpaceOnUse" x="12" y="24" width="24" height="24"><path id="Clip 9" fill-rule="evenodd" clip-rule="evenodd" d="M12 24H36.0001V47.9999H12V24Z" fill="white"></path></mask><g mask="url(#mask1_2147_58291)"><path id="Fill 8" fill-rule="evenodd" clip-rule="evenodd" d="M24 24C30.6274 24 36.0001 29.3727 36.0001 36C36.0001 42.6274 30.6274 48.0001 24 48.0001C17.3727 48.0001 12 42.6274 12 36C12 29.3727 17.3727 24 24 24Z" fill="#ADC928"></path></g></g><path id="Fill 11" fill-rule="evenodd" clip-rule="evenodd" d="M24 24C30.6265 24 36 18.6274 36 12C29.3727 12 24 17.3727 24 24Z" fill="#C3812D"></path><path id="Fill 13" fill-rule="evenodd" clip-rule="evenodd" d="M24 24C24 17.3727 18.6265 12 12 12C12 18.6274 17.3727 24 24 24Z" fill="#756B22"></path><path id="Fill 15" fill-rule="evenodd" clip-rule="evenodd" d="M24 24C24 30.6274 29.3727 36 36 36C36 29.3727 30.6265 24 24 24Z" fill="#97AB35"></path><path id="Fill 17" fill-rule="evenodd" clip-rule="evenodd" d="M24 24C17.3727 24 12 29.3727 12 36C18.6265 36 24 30.6274 24 24Z" fill="#62902C"></path></g><g id="Wordmark Blk"><path id="Fill 13_2" fill-rule="evenodd" clip-rule="evenodd" d="M72.3928 35.0505L69.9263 28.5356H61.2501L58.8761 34.8379H55.9844L64.2042 13.7402H67.0648L75.1636 34.442L72.3928 35.0505ZM65.5733 17.1499L62.2252 26.0085H68.9528L65.5733 17.1499Z" fill="#16140C"></path><path id="Fill 14" fill-rule="evenodd" clip-rule="evenodd" d="M79.3656 26.2522V34.8369H76.6562V20.3155H78.8175L79.2748 23.2687C80.3097 21.6244 81.9843 20.1332 84.3582 20.0112L84.7844 22.5987C82.3793 22.7206 80.34 24.3337 79.3656 26.2522Z" fill="#16140C"></path><path id="Fill 15_2" fill-rule="evenodd" clip-rule="evenodd" d="M92.2407 35.0201C90.0492 35.0201 88.4965 34.6847 86.5781 34.1064V13.2836L89.2875 12.8574V22.0203C90.2618 21.0158 91.6624 20.0112 93.6413 20.0112C96.7768 20.0112 99.3644 22.3246 99.3644 27.1661C99.3644 32.4629 96.4423 35.0201 92.2407 35.0201ZM93.2455 22.4162C91.723 22.4162 90.3838 23.4208 89.2876 24.7911V32.2191C90.2014 32.5536 90.8714 32.7057 92.2106 32.7057C95.0419 32.7057 96.6248 31.0321 96.6248 27.2869C96.6248 24.1211 95.194 22.4162 93.2455 22.4162Z" fill="#16140C"></path><path id="Fill 16" fill-rule="evenodd" clip-rule="evenodd" d="M107.859 35.1417C103.992 35.1417 101.191 32.3717 101.191 27.5918C101.191 22.8118 103.992 20.0107 107.859 20.0107C111.755 20.0107 114.617 22.8118 114.617 27.5918C114.617 32.3717 111.755 35.1417 107.859 35.1417ZM107.859 22.2949C105.241 22.2949 103.932 24.5469 103.932 27.5917C103.932 30.5752 105.301 32.8887 107.859 32.8887C110.538 32.8887 111.877 30.6357 111.877 27.5917C111.877 24.6083 110.477 22.2949 107.859 22.2949Z" fill="#16140C"></path><path id="Fill 17_2" fill-rule="evenodd" clip-rule="evenodd" d="M119.123 26.2522V34.8369H116.414V20.3155H118.575L119.031 23.2687C120.067 21.6244 121.741 20.1332 124.116 20.0112L124.543 22.5987C122.137 22.7206 120.098 24.3337 119.123 26.2522Z" fill="#16140C"></path></g></g></svg> 